<?xml version="1.0" encoding="UTF-8" standalone="no"?>
<!-- Created with Inkscape (http://www.inkscape.org/) -->

<svg
   width="756.30798"
   height="263.9054"
   viewBox="0 0 200.10649 69.824971"
   version="1.1"
   id="svg3831"
   inkscape:version="1.2.2 (b0a84865, 2022-12-01)"
   sodipodi:docname="Dark Logo.svg"
   inkscape:export-filename="/Users/dylancobb/Desktop/darklogotest.png"
   inkscape:export-xdpi="180"
   inkscape:export-ydpi="180"
   xmlns:inkscape="http://www.inkscape.org/namespaces/inkscape"
   xmlns:sodipodi="http://sodipodi.sourceforge.net/DTD/sodipodi-0.dtd"
   xmlns:xlink="http://www.w3.org/1999/xlink"
   xmlns="http://www.w3.org/2000/svg"
   xmlns:svg="http://www.w3.org/2000/svg">
  <sodipodi:namedview
     id="namedview3833"
     pagecolor="#bb2f3d"
     bordercolor="#999999"
     borderopacity="1"
     inkscape:pageshadow="0"
     inkscape:pageopacity="1"
     inkscape:pagecheckerboard="false"
     inkscape:document-units="mm"
     showgrid="false"
     units="px"
     inkscape:snap-center="true"
     inkscape:zoom="0.80635398"
     inkscape:cx="430.95217"
     inkscape:cy="198.42402"
     inkscape:window-width="1312"
     inkscape:window-height="762"
     inkscape:window-x="0"
     inkscape:window-y="25"
     inkscape:window-maximized="0"
     inkscape:current-layer="layer1"
     fit-margin-top="50"
     fit-margin-left="50"
     fit-margin-right="50"
     fit-margin-bottom="50"
     inkscape:object-nodes="true"
     inkscape:snap-global="false"
     inkscape:object-paths="true"
     inkscape:snap-midpoints="true"
     inkscape:snap-smooth-nodes="false"
     inkscape:snap-intersection-paths="true"
     inkscape:snap-object-midpoints="true"
     inkscape:showpageshadow="2"
     inkscape:deskcolor="#bb2f3d" />
  <defs
     id="defs3828">
    <inkscape:path-effect
       effect="spiro"
       id="path-effect4203-3"
       is_visible="true"
       lpeversion="0" />
    <inkscape:path-effect
       effect="spiro"
       id="path-effect4203-3-3"
       is_visible="true"
       lpeversion="0" />
    <inkscape:path-effect
       effect="spiro"
       id="path-effect4203-3-5"
       is_visible="true"
       lpeversion="0" />
    <marker
       style="overflow:visible"
       id="DotS"
       refX="0"
       refY="0"
       orient="auto"
       inkscape:stockid="DotS"
       inkscape:isstock="true">
      <path
         transform="matrix(0.2,0,0,0.2,1.48,0.2)"
         style="fill:context-stroke;fill-rule:evenodd;stroke:context-stroke;stroke-width:1pt"
         d="m -2.5,-1 c 0,2.76 -2.24,5 -5,5 -2.76,0 -5,-2.24 -5,-5 0,-2.76 2.24,-5 5,-5 2.76,0 5,2.24 5,5 z"
         id="path1523" />
    </marker>
    <marker
       inkscape:stockid="DotM"
       orient="auto"
       refY="0"
       refX="0"
       id="DotM-2-90"
       style="overflow:visible"
       inkscape:isstock="true">
      <path
         inkscape:connector-curvature="0"
         id="path4273-6-5"
         d="m -2.5,-1 c 0,2.76 -2.24,5 -5,5 -2.76,0 -5,-2.24 -5,-5 0,-2.76 2.24,-5 5,-5 2.76,0 5,2.24 5,5 z"
         style="fill:#68737b;fill-opacity:1;fill-rule:evenodd;stroke:#ffffff;stroke-width:1pt;stroke-opacity:1"
         transform="matrix(0.4,0,0,0.4,2.96,0.4)" />
    </marker>
    <marker
       inkscape:stockid="DotM"
       orient="auto"
       refY="0"
       refX="0"
       id="marker4485-6-2"
       style="overflow:visible"
       inkscape:isstock="true">
      <path
         inkscape:connector-curvature="0"
         id="path4487-2-27"
         d="m -2.5,-1 c 0,2.76 -2.24,5 -5,5 -2.76,0 -5,-2.24 -5,-5 0,-2.76 2.24,-5 5,-5 2.76,0 5,2.24 5,5 z"
         style="fill:#68737b;fill-opacity:1;fill-rule:evenodd;stroke:#ffffff;stroke-width:1pt;stroke-opacity:1"
         transform="matrix(0.4,0,0,0.4,2.96,0.4)" />
    </marker>
    <marker
       inkscape:stockid="DotM"
       orient="auto"
       refY="0"
       refX="0"
       id="DotM-2-8-37"
       style="overflow:visible"
       inkscape:isstock="true">
      <path
         inkscape:connector-curvature="0"
         id="path4273-6-2-9"
         d="m -2.5,-1 c 0,2.76 -2.24,5 -5,5 -2.76,0 -5,-2.24 -5,-5 0,-2.76 2.24,-5 5,-5 2.76,0 5,2.24 5,5 z"
         style="fill:#68737b;fill-opacity:1;fill-rule:evenodd;stroke:#ffffff;stroke-width:1pt;stroke-opacity:1"
         transform="matrix(0.4,0,0,0.4,2.96,0.4)" />
    </marker>
    <marker
       inkscape:stockid="DotM"
       orient="auto"
       refY="0"
       refX="0"
       id="marker4485-6-6-0"
       style="overflow:visible"
       inkscape:isstock="true">
      <path
         inkscape:connector-curvature="0"
         id="path4487-2-0-2"
         d="m -2.5,-1 c 0,2.76 -2.24,5 -5,5 -2.76,0 -5,-2.24 -5,-5 0,-2.76 2.24,-5 5,-5 2.76,0 5,2.24 5,5 z"
         style="fill:#68737b;fill-opacity:1;fill-rule:evenodd;stroke:#ffffff;stroke-width:1pt;stroke-opacity:1"
         transform="matrix(0.4,0,0,0.4,2.96,0.4)" />
    </marker>
    <marker
       inkscape:stockid="DotM"
       orient="auto"
       refY="0"
       refX="0"
       id="DotM-2-87-3"
       style="overflow:visible"
       inkscape:isstock="true">
      <path
         inkscape:connector-curvature="0"
         id="path4273-6-9-99"
         d="m -2.5,-1 c 0,2.76 -2.24,5 -5,5 -2.76,0 -5,-2.24 -5,-5 0,-2.76 2.24,-5 5,-5 2.76,0 5,2.24 5,5 z"
         style="fill:#68737b;fill-opacity:1;fill-rule:evenodd;stroke:#ffffff;stroke-width:1pt;stroke-opacity:1"
         transform="matrix(0.4,0,0,0.4,2.96,0.4)" />
    </marker>
    <marker
       inkscape:stockid="DotM"
       orient="auto"
       refY="0"
       refX="0"
       id="marker4485-6-1-70"
       style="overflow:visible"
       inkscape:isstock="true">
      <path
         inkscape:connector-curvature="0"
         id="path4487-2-9-3"
         d="m -2.5,-1 c 0,2.76 -2.24,5 -5,5 -2.76,0 -5,-2.24 -5,-5 0,-2.76 2.24,-5 5,-5 2.76,0 5,2.24 5,5 z"
         style="fill:#68737b;fill-opacity:1;fill-rule:evenodd;stroke:#ffffff;stroke-width:1pt;stroke-opacity:1"
         transform="matrix(0.4,0,0,0.4,2.96,0.4)" />
    </marker>
    <marker
       style="overflow:visible"
       id="DotS-8"
       refX="0"
       refY="0"
       orient="auto"
       inkscape:stockid="DotS"
       inkscape:isstock="true">
      <path
         transform="matrix(0.2,0,0,0.2,1.48,0.2)"
         style="fill:context-stroke;fill-rule:evenodd;stroke:context-stroke;stroke-width:1pt"
         d="m -2.5,-1 c 0,2.76 -2.24,5 -5,5 -2.76,0 -5,-2.24 -5,-5 0,-2.76 2.24,-5 5,-5 2.76,0 5,2.24 5,5 z"
         id="path1523-2" />
    </marker>
  </defs>
  <g
     inkscape:label="Layer 1"
     inkscape:groupmode="layer"
     id="layer1"
     transform="translate(-18.794567,-31.684258)">
    <g
       id="g1022">
      <circle
         style="fill:#ffffff;fill-opacity:1;stroke:none;stroke-width:4.0753;stroke-opacity:1;stop-color:#000000"
         id="path4608"
         cx="53.70705"
         cy="66.596741"
         r="34.886024" />
      <g
         id="g5260">
        <a
           style="color:inherit;fill:#68737b;fill-opacity:1"
           xlink:href="textedit:///Users/dylancobb/Desktop/notes.ly:1:2:3"
           id="a1018"
           transform="matrix(12.590317,0,0,12.590317,-243.15248,-48.558063)">
          <g
             transform="translate(22.9264,10.6243)"
             id="g1016"
             style="fill:#68737b;fill-opacity:1">
            <path
               transform="scale(0.004,-0.004)"
               d="m 218,136 c 55,0 108,-28 108,-89 0,-71 -55,-121 -102,-149 -35,-21 -75,-34 -116,-34 -55,0 -108,28 -108,89 0,71 55,121 102,149 35,21 75,34 116,34 z"
               fill="currentColor"
               id="path1014"
               style="fill:#68737b;fill-opacity:1" />
          </g>
        </a>
        <g
           transform="matrix(12.590317,0,0,12.590317,61.100061,47.434268)"
           id="g1030"
           style="fill:#68737b;fill-opacity:1;stroke:none;stroke-opacity:1">
          <rect
             x="-0.064999998"
             y="-0.5"
             width="0.13"
             height="3.3139"
             ry="0.039999999"
             fill="currentColor"
             id="rect1028"
             style="fill:#68737b;fill-opacity:1;stroke:none;stroke-opacity:1" />
        </g>
        <g
           transform="matrix(12.590317,0,0,12.590317,61.918435,41.64278)"
           id="g1034"
           style="fill:#68737b;fill-opacity:1">
          <path
             transform="scale(0.004,-0.004)"
             d="M 0,0 V -250 H -16 V 0 Z m 0,0 c 0,-197 207,-336 207,-533 0,-71 -15,-141 -41,-207 -5,-8 -13,-12 -20,-12 -13,0 -26,11 -23,27 26,61 42,126 42,192 0,103 -94,208 -165,283 z"
             fill="currentColor"
             id="path1032"
             style="fill:#68737b;fill-opacity:1" />
        </g>
      </g>
      <path
         id="path4608-5"
         style="fill:#bb2f3d;fill-opacity:1;stroke:none;stroke-width:4.0753;stroke-opacity:1;stop-color:#000000"
         d="m 33.431576,38.232486 a 34.886024,34.886024 0 0 0 -8.606192,8.803081 l 12.68708,21.974368 10.266556,-5.927804 z" />
      <path
         id="path1768"
         style="fill:#e28d96;fill-opacity:1;stroke:none;stroke-width:6.60268;stroke-opacity:1;stop-color:#000000"
         d="m 50.743292,74.143071 -2.96382,-11.060774 -2.699413,-0.723308 -0.723304,2.699415 -6.844092,3.951438 8.097,8.097131 z m -6.386537,-9.084667 -2.698705,-0.723118 -0.723376,2.698258 z m -3.422086,1.975131 -2.699412,-0.723306 -0.723306,2.699412 z" />
      <path
         id="path1768-2"
         style="fill:#464d53;fill-opacity:1;stroke:none;stroke-width:6.60268;stroke-opacity:1;stop-color:#000000"
         d="m 50.743092,74.143194 -5.133629,2.963902 8.097587,8.098146 z" />
    </g>
    <circle
       style="fill:none;fill-opacity:1;stroke:#bb2f3d;stroke-width:0.0529167;stroke-miterlimit:4;stroke-dasharray:none;stroke-opacity:1;stop-color:#000000"
       id="path4608-3"
       cx="53.70705"
       cy="66.596741"
       r="34.886024" />
    <g
       id="g331"
       transform="translate(3.3333336e-8,1.709552)">
      <path
         d="m 202.13839,66.411068 -6.4268,-11.064683 h -9.67332 v 0.265021 l 10.7334,15.835087 -11.39596,16.365133 v 0.198767 h 9.67332 l 7.08936,-10.932173 7.08934,10.932173 h 9.67332 v -0.198767 l -11.39596,-16.365133 10.7334,-15.835087 v -0.265021 h -9.67331 z"
         style="font-size:52.9167px;line-height:1.25;font-family:'Nexa Bold';-inkscape-font-specification:'Nexa Bold, ';fill:#ffffff;fill-opacity:1;stroke-width:0.331277"
         id="path7390" />
      <path
         id="path1912"
         style="fill:#ffffff;fill-opacity:1;stroke:none;stroke-width:0.292757;-inkscape-stroke:none;stop-color:#000000"
         inkscape:transform-center-x="-3.8071295e-06"
         inkscape:transform-center-y="0.00012730571"
         d="m 165.26088,51.728832 -17.21998,9.941564 6.4e-4,19.883791 17.21998,9.941564 17.21932,-9.941564 -7.15611,-4.131266 -10.06321,5.810948 -10.06451,-5.810948 V 72.49387 h 20.12772 7.15611 V 61.671047 Z m 0,8.262534 10.0645,5.810297 h -20.12902 z" />
      <path
         d="M 142.06836,88.076649 V 41.697732 h -8.67949 v 19.5454 h -22.79192 v -19.5454 h -8.74573 v 46.378917 h 8.74573 V 69.326315 h 22.79192 v 18.750334 z"
         style="font-size:52.9167px;line-height:1.25;font-family:'Nexa Bold';-inkscape-font-specification:'Nexa Bold, ';fill:#ffffff;fill-opacity:1;stroke-width:0.331277"
         id="path7386-0" />
    </g>
  </g>
</svg>
